<?xml version="1.0" encoding="utf-8"?>
<!-- Generator: Adobe Illustrator 22.1.0, SVG Export Plug-In . SVG Version: 6.00 Build 0)  -->
<svg version="1.1" id="Calque_1" xmlns="http://www.w3.org/2000/svg" xmlns:xlink="http://www.w3.org/1999/xlink" x="0px" y="0px"
	 viewBox="0 0 33 33" style="enable-background:new 0 0 33 33;" xml:space="preserve">
<title>Expand 8.3</title>
<desc>Created with Sketch.</desc>
<g>
	<g>
		<path d="M27.2,29.3l-6.1-6.1c-0.4-0.4-1.2-0.7-1.7-0.7h-5.8c-0.6,0-1.3,0.3-1.7,0.7l-6.1,6.1C5.4,29.7,5.6,30,6.1,30H10
			c0.6,0,1,0.4,1,1v1c0,0.6-0.4,1-1,1H1c-0.6,0-1-0.4-1-1v-9c0-0.6,0.4-1,1-1h1c0.6,0,1,0.4,1,1v3.9c0,0.6,0.3,0.7,0.7,0.3l6.1-6.1
			c0.4-0.4,0.7-1.2,0.7-1.7v-5.8c0-0.6-0.3-1.3-0.7-1.7L3.7,5.8C3.3,5.4,3,5.6,3,6.1V10c0,0.6-0.4,1-1,1H1c-0.6,0-1-0.4-1-1V1
			c0-0.6,0.4-1,1-1h9c0.6,0,1,0.4,1,1v1c0,0.6-0.4,1-1,1H6.1C5.6,3,5.4,3.3,5.8,3.7l6.1,6.1c0.4,0.4,1.2,0.7,1.7,0.7h5.8
			c0.6,0,1.3-0.3,1.7-0.7l6.1-6.1C27.6,3.3,27.4,3,26.9,3H23c-0.6,0-1-0.4-1-1V1c0-0.6,0.4-1,1-1h9c0.6,0,1,0.4,1,1v9
			c0,0.6-0.4,1-1,1h-1c-0.6,0-1-0.4-1-1V6.1c0-0.6-0.3-0.7-0.7-0.3l-6.1,6.1c-0.4,0.4-0.7,1.2-0.7,1.7v5.8c0,0.6,0.3,1.3,0.7,1.7
			l6.1,6.1c0.4,0.4,0.7,0.3,0.7-0.3V23c0-0.6,0.4-1,1-1h1c0.6,0,1,0.4,1,1v9c0,0.6-0.4,1-1,1h-9c-0.6,0-1-0.4-1-1v-1
			c0-0.6,0.4-1,1-1h3.9C27.4,30,27.6,29.7,27.2,29.3z M14.5,13.5c-0.5,0-1,0.5-1,1v4c0,0.5,0.5,1,1,1h4c0.5,0,1-0.5,1-1v-4
			c0-0.5-0.5-1-1-1H14.5z"/>
	</g>
</g>
</svg>
